HIERARCHY
ROOT Hips
{
	OFFSET 4.076200 -17.275196 43.303001
	CHANNELS 6 Xposition Yposition Zposition Zrotation Xrotation Yrotation
	JOINT Chest
	{
		OFFSET -0.689800 0.941999 5.341000
		CHANNELS 6 Xposition Yposition Zposition Zrotation Xrotation Yrotation
		JOINT Chest2
		{
			OFFSET 0.000000 0.000000 4.278900
			CHANNELS 6 Xposition Yposition Zposition Zrotation Xrotation Yrotation
			JOINT Neck
			{
				OFFSET 0.000000 0.000000 9.970299
				CHANNELS 6 Xposition Yposition Zposition Zrotation Xrotation Yrotation
				JOINT Head
				{
					OFFSET 0.000000 0.000002 2.173901
					CHANNELS 6 Xposition Yposition Zposition Zrotation Xrotation Yrotation
					End Site
					{
						OFFSET 0.000000 0.000000 6.488197
					}
				}
			}
			JOINT LeftCollar
			{
				OFFSET 2.472300 -0.285801 5.433899
				CHANNELS 6 Xposition Yposition Zposition Zrotation Xrotation Yrotation
				JOINT LeftShoulder
				{
					OFFSET 5.327700 0.000000 0.000000
					CHANNELS 6 Xposition Yposition Zposition Zrotation Xrotation Yrotation
					JOINT LeftElbow
					{
						OFFSET 0.000000 0.000000 -10.713001
						CHANNELS 6 Xposition Yposition Zposition Zrotation Xrotation Yrotation
						JOINT LeftWrist
						{
							OFFSET 0.000000 -0.000002 -13.396900
							CHANNELS 6 Xposition Yposition Zposition Zrotation Xrotation Yrotation
							End Site
							{
								OFFSET 0.000000 0.000000 -2.173901
							}
						}
					}
				}
			}
			JOINT RightCollar
			{
				OFFSET -2.589400 -1.358400 6.105000
				CHANNELS 6 Xposition Yposition Zposition Zrotation Xrotation Yrotation
				JOINT RightShoulder
				{
					OFFSET -4.580200 0.000000 0.000000
					CHANNELS 6 Xposition Yposition Zposition Zrotation Xrotation Yrotation
					JOINT RightElbow
					{
						OFFSET 0.000000 0.000000 -10.761101
						CHANNELS 6 Xposition Yposition Zposition Zrotation Xrotation Yrotation
						JOINT RightWrist
						{
							OFFSET 0.000000 -0.000002 -13.028500
							CHANNELS 6 Xposition Yposition Zposition Zrotation Xrotation Yrotation
							End Site
							{
								OFFSET 0.000000 0.000000 -2.173901
							}
						}
					}
				}
			}
		}
	}
	JOINT LeftHip
	{
		OFFSET 2.532500 0.486900 -2.489700
		CHANNELS 6 Xposition Yposition Zposition Zrotation Xrotation Yrotation
		JOINT LeftKnee
		{
			OFFSET 0.000000 -0.000002 -18.199398
			CHANNELS 6 Xposition Yposition Zposition Zrotation Xrotation Yrotation
			JOINT LeftAnkle
			{
				OFFSET 0.000000 -0.000002 -16.083900
				CHANNELS 6 Xposition Yposition Zposition Zrotation Xrotation Yrotation
				End Site
				{
					OFFSET 0.000000 -8.641399 0.000000
				}
			}
		}
	}
	JOINT RightHip
	{
		OFFSET -2.112700 -0.049900 -2.711102
		CHANNELS 6 Xposition Yposition Zposition Zrotation Xrotation Yrotation
		JOINT RightKnee
		{
			OFFSET 0.000000 -0.000002 -19.127298
			CHANNELS 6 Xposition Yposition Zposition Zrotation Xrotation Yrotation
			JOINT RightAnkle
			{
				OFFSET 0.000000 -0.000002 -14.874901
				CHANNELS 6 Xposition Yposition Zposition Zrotation Xrotation Yrotation
				End Site
				{
					OFFSET 0.000000 -8.198299 0.000000
				}
			}
		}
	}
}
MOTION
Frames: 5
Frame Time: 0.041667
-8.127701 66.552597 42.465401 -351.789767 1.904266 1.890929 -0.689798 0.941988 5.340996 -8.576474 -7.555160 3.438614 0.000000 -0.000003 4.278895 2.522038 0.655483 -0.226250 0.000001 -0.000003 9.970301 -3.131852 10.389967 -7.897393 -0.000000 0.000011 2.173900 1.531536 -0.392253 1.761462 2.472303 -0.285810 5.433904 -17.939401 9.245266 -14.594507 5.327702 0.000005 -0.000000 -15.832157 16.480193 -21.409187 0.000006 0.000000 -10.712999 14.232547 -16.588388 37.081316 0.000002 0.000001 -13.396894 16.712293 -14.819518 328.814760 -2.589400 -1.358408 6.105004 0.657371 1.806140 -4.405016 -4.580198 -0.000001 -0.000004 -7.575364 -23.155023 77.153817 0.000010 -0.000008 -10.761102 -114.275308 -35.652293 -153.429353 0.000003 0.000013 -13.028502 72.235404 4.241565 74.905073 2.532501 0.486891 -2.489700 21.901007 -21.891950 -9.041401 0.000001 0.000009 -18.199398 -63.434412 58.811870 63.596848 -0.000001 -0.000012 -16.083889 8.855372 16.517453 -3.829894 -2.112699 -0.049912 -2.711109 -5.497472 -6.527997 -6.250996 0.000002 -0.000007 -19.127293 874.362568 158.441100 -906.176606 -0.000003 -0.000004 -14.874902 0.719456 31.338783 15.042836
-8.110998 66.540909 42.460201 -351.498146 2.183428 2.168921 -0.689797 0.941997 5.340995 -8.953253 -7.448844 3.511236 0.000001 0.000008 4.278895 2.465003 0.534889 -0.276950 0.000001 -0.000002 9.970296 -3.110771 10.222713 -8.419855 0.000001 -0.000006 2.173902 1.682436 -0.112436 1.862497 2.472300 -0.285802 5.433905 -17.686305 9.361760 -15.272605 5.327700 0.000007 -0.000001 -16.048223 16.255997 -21.190442 -0.000001 0.000002 -10.712996 14.904373 -16.109225 37.386646 0.000002 0.000007 -13.396900 15.916779 -14.765699 328.652420 -2.589400 -1.358401 6.105002 1.364576 1.741330 -4.745358 -4.580202 0.000007 0.000006 -8.513256 -22.865839 76.726951 -0.000010 -0.000010 -10.761101 -115.287241 -35.748647 -154.184048 -0.000005 0.000000 -13.028504 71.901463 4.006894 73.981952 2.532502 0.486890 -2.489708 21.393674 -22.188834 -9.192817 -0.000003 -0.000005 -18.199400 -63.037844 59.021338 63.277085 -0.000004 -0.000005 -16.083893 8.777223 16.507150 -3.966602 -2.112698 -0.049907 -2.711110 -6.335410 -6.814592 -6.533075 0.000001 0.000003 -19.127298 873.612887 158.269362 -905.972957 -0.000001 0.000004 -14.874902 1.615416 31.550816 15.548623
-8.058100 66.501099 42.428604 -351.887002 2.538254 2.242121 -0.689800 0.942006 5.341000 -8.558918 -8.045460 2.857037 0.000001 -0.000006 4.278907 2.546561 0.838861 -0.186136 -0.000002 -0.000018 9.970299 -4.400157 10.443066 -6.797537 0.000001 -0.000008 2.173894 2.655201 -0.410234 0.990137 2.472300 -0.285808 5.433907 -17.716206 9.126171 -15.150698 5.327699 0.000008 0.000002 -16.392331 16.484935 -20.756960 0.000000 -0.000008 -10.712997 15.006274 -16.356553 37.393267 0.000005 -0.000005 -13.396895 15.907383 -14.617605 328.595155 -2.589401 -1.358408 6.105004 0.936063 1.635711 -3.287443 -4.580198 0.000002 0.000002 -8.933374 -23.620782 75.628321 0.000007 0.000001 -10.761105 -112.967422 -35.661439 -153.662331 0.000004 0.000008 -13.028502 71.639894 3.492358 74.725596 2.532502 0.486902 -2.489704 21.335517 -22.214499 -9.214046 -0.000001 -0.000007 -18.199402 -61.897770 59.165496 62.590802 0.000002 -0.000000 -16.083897 8.606495 16.763361 -4.120623 -2.112698 -0.049898 -2.711108 -6.357080 -7.114396 -6.523433 -0.000001 0.000004 -19.127296 873.319571 158.190350 -905.969788 -0.000000 0.000003 -14.874905 2.224052 31.717517 15.709503
-8.003002 66.472610 42.414108 -352.116824 2.229679 2.185635 -0.689799 0.941991 5.340994 -8.315069 -7.570371 3.096050 0.000001 0.000004 4.278899 2.798182 0.909224 -0.140539 0.000001 0.000005 9.970304 -3.442252 10.021056 -8.079959 0.000000 0.000002 2.173893 1.355713 -0.416976 1.948048 2.472301 -0.285804 5.433900 -17.149565 8.123617 -16.657826 5.327700 0.000006 -0.000001 -16.173832 15.992272 -19.852592 0.000001 -0.000003 -10.713000 12.520529 -16.604634 37.511051 0.000001 -0.000001 -13.396899 16.797156 -14.841137 328.487512 -2.589400 -1.358395 6.105000 -0.024610 -2.312858 -2.984762 -4.580199 0.000006 -0.000004 -8.102498 -19.515148 75.978580 -0.000006 0.000000 -10.761105 -114.483669 -36.000302 -154.420605 0.000003 0.000010 -13.028500 70.834888 4.364054 74.932940 2.532502 0.486898 -2.489706 22.526944 -22.097363 -8.935790 0.000001 -0.000004 -18.199396 -63.034668 59.092372 62.738785 -0.000002 -0.000002 -16.083895 8.511491 16.670117 -3.740228 -2.112699 -0.049906 -2.711106 -5.544530 -6.633252 -6.323770 0.000000 -0.000008 -19.127293 873.041992 158.522666 -906.213271 -0.000000 -0.000011 -14.874899 2.074406 31.810694 15.730948
-7.975100 66.444611 42.427101 -352.149691 2.760105 2.222228 -0.689801 0.942002 5.341002 -8.323393 -8.083131 3.084785 0.000000 -0.000001 4.278899 2.653501 0.852752 -0.187162 -0.000000 -0.000012 9.970298 -3.338716 9.997899 -8.200552 0.000000 0.000007 2.173895 1.401652 0.057592 1.943973 2.472300 -0.285806 5.433896 -17.227902 8.270801 -16.637209 5.327700 0.000001 0.000003 -15.551202 16.131131 -19.632802 -0.000003 0.000007 -10.712997 10.456039 -18.290490 36.816338 0.000005 -0.000006 -13.396897 19.428468 -15.834655 331.490281 -2.589401 -1.358412 6.104999 -0.249091 1.158984 -3.247245 -4.580201 0.000002 -0.000001 -7.489153 -22.264846 75.918427 -0.000005 0.000004 -10.761109 -114.520464 -35.694989 -154.321854 -0.000004 0.000006 -13.028500 71.282702 4.372581 74.824367 2.532501 0.486895 -2.489705 22.788381 -22.551773 -8.710667 -0.000004 -0.000005 -18.199406 -63.588890 58.855692 63.025072 0.000000 -0.000003 -16.083899 8.558777 16.508219 -3.274373 -2.112699 -0.049891 -2.711101 -4.837178 -6.940718 -6.233628 -0.000000 0.000006 -19.127296 873.010737 158.864531 -906.575817 0.000003 -0.000001 -14.874900 1.718039 31.823726 15.575802
